<svg xmlns="http://www.w3.org/2000/svg" width="26" height="26.015" viewBox="0 0 26 26.015"><path d="M934.439,396.818a4.315,4.315,0,0,0-4.544-3.929h-5.951a1.5,1.5,0,0,0,0,3h6c.037,0,.076,0,.113-.005a1.314,1.314,0,0,1,1.387,1.137v17.736a1.3,1.3,0,0,1-1.387,1.136c-.037,0-.076,0-.113,0h-6a1.5,1.5,0,0,0,0,3h5.95c.087.005.174.007.26.007a4.315,4.315,0,0,0,4.285-3.936c0-.043,0-.085,0-.127V396.945C934.444,396.9,934.442,396.86,934.439,396.818Z" transform="translate(-908.444 -392.881)" fill="#fff"/><path d="M928.881,407.052a1.611,1.611,0,0,0,.171-.16c.026-.028.05-.058.073-.088a1.414,1.414,0,0,0,.118-.179,1.032,1.032,0,0,0,.054-.1,1.442,1.442,0,0,0,.08-.217c.009-.03.021-.059.028-.09a1.422,1.422,0,0,0,0-.661c-.007-.03-.019-.059-.028-.09a1.443,1.443,0,0,0-.08-.217c-.016-.034-.035-.066-.054-.1a1.335,1.335,0,0,0-.118-.178c-.023-.031-.047-.06-.073-.089a1.5,1.5,0,0,0-.171-.159c-.018-.015-.031-.033-.05-.047l-7.5-5.5a1.5,1.5,0,1,0-1.773,2.419l3.8,2.791H909.944a1.5,1.5,0,0,0,0,3h13.419l-3.8,2.79a1.5,1.5,0,1,0,1.773,2.419l7.5-5.5C928.85,407.085,928.863,407.066,928.881,407.052Z" transform="translate(-908.444 -392.881)" fill="#fff"/></svg>